<?xml version="1.0" encoding="UTF-8" standalone="no"?>
<!-- Created with Inkscape (http://www.inkscape.org/) -->
<svg
   xmlns:dc="http://purl.org/dc/elements/1.1/"
   xmlns:cc="http://creativecommons.org/ns#"
   xmlns:rdf="http://www.w3.org/1999/02/22-rdf-syntax-ns#"
   xmlns:svg="http://www.w3.org/2000/svg"
   xmlns="http://www.w3.org/2000/svg"
   xmlns:sodipodi="http://sodipodi.sourceforge.net/DTD/sodipodi-0.dtd"
   xmlns:inkscape="http://www.inkscape.org/namespaces/inkscape"
   width="44"
   height="44"
   id="svg2"
   sodipodi:version="0.32"
   inkscape:version="0.46"
   inkscape:export-filename="e:\Eigene Bilder\Commons\WikiMeter\WikiFrequencyBabel-1-1.png"
   inkscape:export-xdpi="90"
   inkscape:export-ydpi="90"
   version="1.0"
   sodipodi:docname="WikiFrequencyBabel-3-2.svg"
   inkscape:output_extension="org.inkscape.output.svg.inkscape">
  <defs
     id="defs4">
    <inkscape:perspective
       sodipodi:type="inkscape:persp3d"
       inkscape:vp_x="0 : 526.18109 : 1"
       inkscape:vp_y="0 : 1000 : 0"
       inkscape:vp_z="744.09448 : 526.18109 : 1"
       inkscape:persp3d-origin="372.04724 : 350.78739 : 1"
       id="perspective10" />
    <inkscape:perspective
       id="perspective2533"
       inkscape:persp3d-origin="336.04724 : 223.66534 : 1"
       inkscape:vp_z="672.09448 : 335.49802 : 1"
       inkscape:vp_y="0 : 1000 : 0"
       inkscape:vp_x="0 : 335.49802 : 1"
       sodipodi:type="inkscape:persp3d" />
    <inkscape:perspective
       id="perspective2677"
       inkscape:persp3d-origin="336.04724 : 223.66534 : 1"
       inkscape:vp_z="672.09448 : 335.49802 : 1"
       inkscape:vp_y="0 : 1000 : 0"
       inkscape:vp_x="0 : 335.49802 : 1"
       sodipodi:type="inkscape:persp3d" />
    <clipPath
       id="clipPath2839"
       clipPathUnits="userSpaceOnUse">
      <path
         id="path2841"
         d="M 0,0 L 455.25,0 L 455.25,454.5 L 0,454.5 L 0,0 z" />
    </clipPath>
    <clipPath
       id="clipPath2753"
       clipPathUnits="userSpaceOnUse">
      <path
         id="path2755"
         d="M 0,0 L 455.25,0 L 455.25,454.5 L 0,454.5 L 0,0 z" />
    </clipPath>
    <clipPath
       id="clipPath2743"
       clipPathUnits="userSpaceOnUse">
      <path
         id="path2745"
         d="M 59.04,73.44 L 425.01,73.44 L 425.01,395.46 L 59.04,395.46 L 59.04,73.44 z" />
    </clipPath>
    <inkscape:perspective
       id="perspective2733"
       inkscape:persp3d-origin="372.04724 : 350.78739 : 1"
       inkscape:vp_z="744.09448 : 526.18109 : 1"
       inkscape:vp_y="0 : 1000 : 0"
       inkscape:vp_x="0 : 526.18109 : 1"
       sodipodi:type="inkscape:persp3d" />
  </defs>
  <sodipodi:namedview
     id="base"
     pagecolor="#ffffff"
     bordercolor="#666666"
     borderopacity="1.0"
     inkscape:pageopacity="0.0"
     inkscape:pageshadow="2"
     inkscape:zoom="5.4754665"
     inkscape:cx="21.922729"
     inkscape:cy="18.093537"
     inkscape:document-units="px"
     inkscape:current-layer="layer1"
     showgrid="true"
     inkscape:window-width="1024"
     inkscape:window-height="749"
     inkscape:window-x="0"
     inkscape:window-y="0"
     inkscape:object-paths="true"
     inkscape:object-nodes="true"
     objecttolerance="18"
     gridtolerance="18"
     guidetolerance="20">
    <inkscape:grid
       type="xygrid"
       id="grid3284"
       visible="true"
       enabled="true"
       spacingx="5px"
       spacingy="5px"
       color="#0000ff"
       opacity="0.28627451"
       empcolor="#0000ff"
       empopacity="0.40784314"
       originx="1px"
       originy="-2px" />
  </sodipodi:namedview>
  <metadata
     id="metadata7">
    <rdf:RDF>
      <cc:Work
         rdf:about="">
        <dc:format>image/svg+xml</dc:format>
        <dc:type
           rdf:resource="http://purl.org/dc/dcmitype/StillImage" />
      </cc:Work>
    </rdf:RDF>
  </metadata>
  <g
     inkscape:label="Ebene 1"
     inkscape:groupmode="layer"
     id="layer1"
     transform="translate(132,132)">
    <rect
       style="opacity:1;fill:#002900;fill-opacity:1;fill-rule:nonzero;stroke:none;stroke-width:2.5;stroke-linecap:round;stroke-linejoin:round;stroke-miterlimit:4;stroke-dasharray:none;stroke-dashoffset:0;stroke-opacity:1"
       id="rect2512"
       width="44"
       height="44"
       x="-132"
       y="88"
       transform="scale(1,-1)" />
    <rect
       style="opacity:1;fill:#00ff00;fill-opacity:1;fill-rule:nonzero;stroke:none;stroke-width:5;stroke-linecap:round;stroke-linejoin:round;stroke-miterlimit:4;stroke-dasharray:none;stroke-dashoffset:0;stroke-opacity:1"
       id="rect3292"
       width="50"
       height="1"
       x="86"
       y="110"
       transform="scale(-1,-1)" />
    <rect
       style="opacity:1;fill:#00ff00;fill-opacity:1;fill-rule:nonzero;stroke:none;stroke-width:5;stroke-linecap:round;stroke-linejoin:round;stroke-miterlimit:4;stroke-dasharray:none;stroke-dashoffset:0;stroke-opacity:1"
       id="rect3294"
       width="1"
       height="50"
       x="-111"
       y="86"
       transform="scale(1,-1)" />
    <rect
       transform="scale(1,-1)"
       inkscape:tile-y0="124"
       inkscape:tile-x0="124"
       y="115"
       x="-112"
       height="1"
       width="3"
       id="use3580"
       style="fill:#00ff00;fill-opacity:1;fill-rule:nonzero;stroke:none;stroke-width:5;stroke-linecap:round;stroke-linejoin:round;stroke-miterlimit:4;stroke-dasharray:none;stroke-dashoffset:0;stroke-opacity:1" />
    <rect
       transform="scale(1,-1)"
       inkscape:tile-y0="124"
       inkscape:tile-x0="124"
       y="120"
       x="-112"
       height="1"
       width="3"
       id="rect2571"
       style="fill:#00ff00;fill-opacity:1;fill-rule:nonzero;stroke:none;stroke-width:5;stroke-linecap:round;stroke-linejoin:round;stroke-miterlimit:4;stroke-dasharray:none;stroke-dashoffset:0;stroke-opacity:1" />
    <rect
       transform="scale(1,-1)"
       inkscape:tile-y0="124"
       inkscape:tile-x0="124"
       y="125"
       x="-112"
       height="1"
       width="3"
       id="rect2573"
       style="fill:#00ff00;fill-opacity:1;fill-rule:nonzero;stroke:none;stroke-width:5;stroke-linecap:round;stroke-linejoin:round;stroke-miterlimit:4;stroke-dasharray:none;stroke-dashoffset:0;stroke-opacity:1" />
    <rect
       transform="scale(1,-1)"
       inkscape:tile-y0="124"
       inkscape:tile-x0="124"
       y="105"
       x="-112"
       height="1"
       width="3"
       id="rect2575"
       style="fill:#00ff00;fill-opacity:1;fill-rule:nonzero;stroke:none;stroke-width:5;stroke-linecap:round;stroke-linejoin:round;stroke-miterlimit:4;stroke-dasharray:none;stroke-dashoffset:0;stroke-opacity:1" />
    <rect
       transform="scale(1,-1)"
       inkscape:tile-y0="124"
       inkscape:tile-x0="124"
       y="100"
       x="-112"
       height="1"
       width="3"
       id="rect2577"
       style="fill:#00ff00;fill-opacity:1;fill-rule:nonzero;stroke:none;stroke-width:5;stroke-linecap:round;stroke-linejoin:round;stroke-miterlimit:4;stroke-dasharray:none;stroke-dashoffset:0;stroke-opacity:1" />
    <rect
       transform="scale(1,-1)"
       inkscape:tile-y0="124"
       inkscape:tile-x0="124"
       y="95"
       x="-112"
       height="1"
       width="3"
       id="rect2579"
       style="fill:#00ff00;fill-opacity:1;fill-rule:nonzero;stroke:none;stroke-width:5;stroke-linecap:round;stroke-linejoin:round;stroke-miterlimit:4;stroke-dasharray:none;stroke-dashoffset:0;stroke-opacity:1" />
    <rect
       style="fill:#00ff00;fill-opacity:1;fill-rule:nonzero;stroke:none;stroke-width:5;stroke-linecap:round;stroke-linejoin:round;stroke-miterlimit:4;stroke-dasharray:none;stroke-dashoffset:0;stroke-opacity:1"
       id="use2763"
       width="1"
       height="1"
       x="-126"
       y="125"
       inkscape:tile-x0="1"
       inkscape:tile-y0="1"
       transform="scale(1,-1)" />
    <rect
       style="fill:#00ff00;fill-opacity:1;fill-rule:nonzero;stroke:none;stroke-width:5;stroke-linecap:round;stroke-linejoin:round;stroke-miterlimit:4;stroke-dasharray:none;stroke-dashoffset:0;stroke-opacity:1"
       id="use2765"
       width="1"
       height="1"
       x="-126"
       y="120"
       inkscape:tile-x0="1"
       inkscape:tile-y0="1"
       transform="scale(1,-1)" />
    <rect
       style="fill:#00ff00;fill-opacity:1;fill-rule:nonzero;stroke:none;stroke-width:5;stroke-linecap:round;stroke-linejoin:round;stroke-miterlimit:4;stroke-dasharray:none;stroke-dashoffset:0;stroke-opacity:1"
       id="use2767"
       width="1"
       height="1"
       x="-126"
       y="115"
       inkscape:tile-x0="1"
       inkscape:tile-y0="1"
       transform="scale(1,-1)" />
    <rect
       style="fill:#00ff00;fill-opacity:1;fill-rule:nonzero;stroke:none;stroke-width:5;stroke-linecap:round;stroke-linejoin:round;stroke-miterlimit:4;stroke-dasharray:none;stroke-dashoffset:0;stroke-opacity:1"
       id="use2771"
       width="1"
       height="1"
       x="-126"
       y="105"
       inkscape:tile-x0="1"
       inkscape:tile-y0="1"
       transform="scale(1,-1)" />
    <rect
       style="fill:#00ff00;fill-opacity:1;fill-rule:nonzero;stroke:none;stroke-width:5;stroke-linecap:round;stroke-linejoin:round;stroke-miterlimit:4;stroke-dasharray:none;stroke-dashoffset:0;stroke-opacity:1"
       id="use2773"
       width="1"
       height="1"
       x="-126"
       y="100"
       inkscape:tile-x0="1"
       inkscape:tile-y0="1"
       transform="scale(1,-1)" />
    <rect
       style="fill:#00ff00;fill-opacity:1;fill-rule:nonzero;stroke:none;stroke-width:5;stroke-linecap:round;stroke-linejoin:round;stroke-miterlimit:4;stroke-dasharray:none;stroke-dashoffset:0;stroke-opacity:1"
       id="use2775"
       width="1"
       height="1"
       x="-126"
       y="95"
       inkscape:tile-x0="1"
       inkscape:tile-y0="1"
       transform="scale(1,-1)" />
    <rect
       style="fill:#00ff00;fill-opacity:1;fill-rule:nonzero;stroke:none;stroke-width:5;stroke-linecap:round;stroke-linejoin:round;stroke-miterlimit:4;stroke-dasharray:none;stroke-dashoffset:0;stroke-opacity:1"
       id="use2781"
       width="1"
       height="1"
       x="-121"
       y="125"
       inkscape:tile-x0="1"
       inkscape:tile-y0="1"
       transform="scale(1,-1)" />
    <rect
       style="fill:#00ff00;fill-opacity:1;fill-rule:nonzero;stroke:none;stroke-width:5;stroke-linecap:round;stroke-linejoin:round;stroke-miterlimit:4;stroke-dasharray:none;stroke-dashoffset:0;stroke-opacity:1"
       id="use2783"
       width="1"
       height="1"
       x="-121"
       y="120"
       inkscape:tile-x0="1"
       inkscape:tile-y0="1"
       transform="scale(1,-1)" />
    <rect
       style="fill:#00ff00;fill-opacity:1;fill-rule:nonzero;stroke:none;stroke-width:5;stroke-linecap:round;stroke-linejoin:round;stroke-miterlimit:4;stroke-dasharray:none;stroke-dashoffset:0;stroke-opacity:1"
       id="use2785"
       width="1"
       height="1"
       x="-121"
       y="115"
       inkscape:tile-x0="1"
       inkscape:tile-y0="1"
       transform="scale(1,-1)" />
    <rect
       style="fill:#00ff00;fill-opacity:1;fill-rule:nonzero;stroke:none;stroke-width:5;stroke-linecap:round;stroke-linejoin:round;stroke-miterlimit:4;stroke-dasharray:none;stroke-dashoffset:0;stroke-opacity:1"
       id="use2789"
       width="1"
       height="1"
       x="-121"
       y="105"
       inkscape:tile-x0="1"
       inkscape:tile-y0="1"
       transform="scale(1,-1)" />
    <rect
       style="fill:#00ff00;fill-opacity:1;fill-rule:nonzero;stroke:none;stroke-width:5;stroke-linecap:round;stroke-linejoin:round;stroke-miterlimit:4;stroke-dasharray:none;stroke-dashoffset:0;stroke-opacity:1"
       id="use2791"
       width="1"
       height="1"
       x="-121"
       y="100"
       inkscape:tile-x0="1"
       inkscape:tile-y0="1"
       transform="scale(1,-1)" />
    <rect
       style="fill:#00ff00;fill-opacity:1;fill-rule:nonzero;stroke:none;stroke-width:5;stroke-linecap:round;stroke-linejoin:round;stroke-miterlimit:4;stroke-dasharray:none;stroke-dashoffset:0;stroke-opacity:1"
       id="use2793"
       width="1"
       height="1"
       x="-121"
       y="95"
       inkscape:tile-x0="1"
       inkscape:tile-y0="1"
       transform="scale(1,-1)" />
    <rect
       style="fill:#00ff00;fill-opacity:1;fill-rule:nonzero;stroke:none;stroke-width:5;stroke-linecap:round;stroke-linejoin:round;stroke-miterlimit:4;stroke-dasharray:none;stroke-dashoffset:0;stroke-opacity:1"
       id="use2799"
       width="1"
       height="1"
       x="-116"
       y="125"
       inkscape:tile-x0="1"
       inkscape:tile-y0="1"
       transform="scale(1,-1)" />
    <rect
       style="fill:#00ff00;fill-opacity:1;fill-rule:nonzero;stroke:none;stroke-width:5;stroke-linecap:round;stroke-linejoin:round;stroke-miterlimit:4;stroke-dasharray:none;stroke-dashoffset:0;stroke-opacity:1"
       id="use2801"
       width="1"
       height="1"
       x="-116"
       y="120"
       inkscape:tile-x0="1"
       inkscape:tile-y0="1"
       transform="scale(1,-1)" />
    <rect
       style="fill:#00ff00;fill-opacity:1;fill-rule:nonzero;stroke:none;stroke-width:5;stroke-linecap:round;stroke-linejoin:round;stroke-miterlimit:4;stroke-dasharray:none;stroke-dashoffset:0;stroke-opacity:1"
       id="use2803"
       width="1"
       height="1"
       x="-116"
       y="115"
       inkscape:tile-x0="1"
       inkscape:tile-y0="1"
       transform="scale(1,-1)" />
    <rect
       style="fill:#00ff00;fill-opacity:1;fill-rule:nonzero;stroke:none;stroke-width:5;stroke-linecap:round;stroke-linejoin:round;stroke-miterlimit:4;stroke-dasharray:none;stroke-dashoffset:0;stroke-opacity:1"
       id="use2807"
       width="1"
       height="1"
       x="-116"
       y="105"
       inkscape:tile-x0="1"
       inkscape:tile-y0="1"
       transform="scale(1,-1)" />
    <rect
       style="fill:#00ff00;fill-opacity:1;fill-rule:nonzero;stroke:none;stroke-width:5;stroke-linecap:round;stroke-linejoin:round;stroke-miterlimit:4;stroke-dasharray:none;stroke-dashoffset:0;stroke-opacity:1"
       id="use2809"
       width="1"
       height="1"
       x="-116"
       y="100"
       inkscape:tile-x0="1"
       inkscape:tile-y0="1"
       transform="scale(1,-1)" />
    <rect
       style="fill:#00ff00;fill-opacity:1;fill-rule:nonzero;stroke:none;stroke-width:5;stroke-linecap:round;stroke-linejoin:round;stroke-miterlimit:4;stroke-dasharray:none;stroke-dashoffset:0;stroke-opacity:1"
       id="use2811"
       width="1"
       height="1"
       x="-116"
       y="95"
       inkscape:tile-x0="1"
       inkscape:tile-y0="1"
       transform="scale(1,-1)" />
    <rect
       style="fill:#00ff00;fill-opacity:1;fill-rule:nonzero;stroke:none;stroke-width:5;stroke-linecap:round;stroke-linejoin:round;stroke-miterlimit:4;stroke-dasharray:none;stroke-dashoffset:0;stroke-opacity:1"
       id="use2835"
       width="1"
       height="1"
       x="-106"
       y="125"
       inkscape:tile-x0="1"
       inkscape:tile-y0="1"
       transform="scale(1,-1)" />
    <rect
       style="fill:#00ff00;fill-opacity:1;fill-rule:nonzero;stroke:none;stroke-width:5;stroke-linecap:round;stroke-linejoin:round;stroke-miterlimit:4;stroke-dasharray:none;stroke-dashoffset:0;stroke-opacity:1"
       id="use2837"
       width="1"
       height="1"
       x="-106"
       y="120"
       inkscape:tile-x0="1"
       inkscape:tile-y0="1"
       transform="scale(1,-1)" />
    <rect
       style="fill:#00ff00;fill-opacity:1;fill-rule:nonzero;stroke:none;stroke-width:5;stroke-linecap:round;stroke-linejoin:round;stroke-miterlimit:4;stroke-dasharray:none;stroke-dashoffset:0;stroke-opacity:1"
       id="use2839"
       width="1"
       height="1"
       x="-106"
       y="115"
       inkscape:tile-x0="1"
       inkscape:tile-y0="1"
       transform="scale(1,-1)" />
    <rect
       style="fill:#00ff00;fill-opacity:1;fill-rule:nonzero;stroke:none;stroke-width:5;stroke-linecap:round;stroke-linejoin:round;stroke-miterlimit:4;stroke-dasharray:none;stroke-dashoffset:0;stroke-opacity:1"
       id="use2843"
       width="1"
       height="1"
       x="-106"
       y="105"
       inkscape:tile-x0="1"
       inkscape:tile-y0="1"
       transform="scale(1,-1)" />
    <rect
       style="fill:#00ff00;fill-opacity:1;fill-rule:nonzero;stroke:none;stroke-width:5;stroke-linecap:round;stroke-linejoin:round;stroke-miterlimit:4;stroke-dasharray:none;stroke-dashoffset:0;stroke-opacity:1"
       id="use2845"
       width="1"
       height="1"
       x="-106"
       y="100"
       inkscape:tile-x0="1"
       inkscape:tile-y0="1"
       transform="scale(1,-1)" />
    <rect
       style="fill:#00ff00;fill-opacity:1;fill-rule:nonzero;stroke:none;stroke-width:5;stroke-linecap:round;stroke-linejoin:round;stroke-miterlimit:4;stroke-dasharray:none;stroke-dashoffset:0;stroke-opacity:1"
       id="use2847"
       width="1"
       height="1"
       x="-106"
       y="95"
       inkscape:tile-x0="1"
       inkscape:tile-y0="1"
       transform="scale(1,-1)" />
    <rect
       style="fill:#00ff00;fill-opacity:1;fill-rule:nonzero;stroke:none;stroke-width:5;stroke-linecap:round;stroke-linejoin:round;stroke-miterlimit:4;stroke-dasharray:none;stroke-dashoffset:0;stroke-opacity:1"
       id="use2853"
       width="1"
       height="1"
       x="-101"
       y="125"
       inkscape:tile-x0="1"
       inkscape:tile-y0="1"
       transform="scale(1,-1)" />
    <rect
       style="fill:#00ff00;fill-opacity:1;fill-rule:nonzero;stroke:none;stroke-width:5;stroke-linecap:round;stroke-linejoin:round;stroke-miterlimit:4;stroke-dasharray:none;stroke-dashoffset:0;stroke-opacity:1"
       id="use2855"
       width="1"
       height="1"
       x="-101"
       y="120"
       inkscape:tile-x0="1"
       inkscape:tile-y0="1"
       transform="scale(1,-1)" />
    <rect
       style="fill:#00ff00;fill-opacity:1;fill-rule:nonzero;stroke:none;stroke-width:5;stroke-linecap:round;stroke-linejoin:round;stroke-miterlimit:4;stroke-dasharray:none;stroke-dashoffset:0;stroke-opacity:1"
       id="use2857"
       width="1"
       height="1"
       x="-101"
       y="115"
       inkscape:tile-x0="1"
       inkscape:tile-y0="1"
       transform="scale(1,-1)" />
    <rect
       style="fill:#00ff00;fill-opacity:1;fill-rule:nonzero;stroke:none;stroke-width:5;stroke-linecap:round;stroke-linejoin:round;stroke-miterlimit:4;stroke-dasharray:none;stroke-dashoffset:0;stroke-opacity:1"
       id="use2861"
       width="1"
       height="1"
       x="-101"
       y="105"
       inkscape:tile-x0="1"
       inkscape:tile-y0="1"
       transform="scale(1,-1)" />
    <rect
       style="fill:#00ff00;fill-opacity:1;fill-rule:nonzero;stroke:none;stroke-width:5;stroke-linecap:round;stroke-linejoin:round;stroke-miterlimit:4;stroke-dasharray:none;stroke-dashoffset:0;stroke-opacity:1"
       id="use2863"
       width="1"
       height="1"
       x="-101"
       y="100"
       inkscape:tile-x0="1"
       inkscape:tile-y0="1"
       transform="scale(1,-1)" />
    <rect
       style="fill:#00ff00;fill-opacity:1;fill-rule:nonzero;stroke:none;stroke-width:5;stroke-linecap:round;stroke-linejoin:round;stroke-miterlimit:4;stroke-dasharray:none;stroke-dashoffset:0;stroke-opacity:1"
       id="use2865"
       width="1"
       height="1"
       x="-101"
       y="95"
       inkscape:tile-x0="1"
       inkscape:tile-y0="1"
       transform="scale(1,-1)" />
    <rect
       style="fill:#00ff00;fill-opacity:1;fill-rule:nonzero;stroke:none;stroke-width:5;stroke-linecap:round;stroke-linejoin:round;stroke-miterlimit:4;stroke-dasharray:none;stroke-dashoffset:0;stroke-opacity:1"
       id="use2871"
       width="1"
       height="1"
       x="-96"
       y="125"
       inkscape:tile-x0="1"
       inkscape:tile-y0="1"
       transform="scale(1,-1)" />
    <rect
       style="fill:#00ff00;fill-opacity:1;fill-rule:nonzero;stroke:none;stroke-width:5;stroke-linecap:round;stroke-linejoin:round;stroke-miterlimit:4;stroke-dasharray:none;stroke-dashoffset:0;stroke-opacity:1"
       id="use2873"
       width="1"
       height="1"
       x="-96"
       y="120"
       inkscape:tile-x0="1"
       inkscape:tile-y0="1"
       transform="scale(1,-1)" />
    <rect
       style="fill:#00ff00;fill-opacity:1;fill-rule:nonzero;stroke:none;stroke-width:5;stroke-linecap:round;stroke-linejoin:round;stroke-miterlimit:4;stroke-dasharray:none;stroke-dashoffset:0;stroke-opacity:1"
       id="use2875"
       width="1"
       height="1"
       x="-96"
       y="115"
       inkscape:tile-x0="1"
       inkscape:tile-y0="1"
       transform="scale(1,-1)" />
    <rect
       style="fill:#00ff00;fill-opacity:1;fill-rule:nonzero;stroke:none;stroke-width:5;stroke-linecap:round;stroke-linejoin:round;stroke-miterlimit:4;stroke-dasharray:none;stroke-dashoffset:0;stroke-opacity:1"
       id="use2879"
       width="1"
       height="1"
       x="-96"
       y="105"
       inkscape:tile-x0="1"
       inkscape:tile-y0="1"
       transform="scale(1,-1)" />
    <rect
       style="fill:#00ff00;fill-opacity:1;fill-rule:nonzero;stroke:none;stroke-width:5;stroke-linecap:round;stroke-linejoin:round;stroke-miterlimit:4;stroke-dasharray:none;stroke-dashoffset:0;stroke-opacity:1"
       id="use2881"
       width="1"
       height="1"
       x="-96"
       y="100"
       inkscape:tile-x0="1"
       inkscape:tile-y0="1"
       transform="scale(1,-1)" />
    <rect
       style="fill:#00ff00;fill-opacity:1;fill-rule:nonzero;stroke:none;stroke-width:5;stroke-linecap:round;stroke-linejoin:round;stroke-miterlimit:4;stroke-dasharray:none;stroke-dashoffset:0;stroke-opacity:1"
       id="use2883"
       width="1"
       height="1"
       x="-96"
       y="95"
       inkscape:tile-x0="1"
       inkscape:tile-y0="1"
       transform="scale(1,-1)" />
    <rect
       style="fill:#00ff00;fill-opacity:1;fill-rule:nonzero;stroke:none;stroke-width:5;stroke-linecap:round;stroke-linejoin:round;stroke-miterlimit:4;stroke-dasharray:none;stroke-dashoffset:0;stroke-opacity:1"
       id="rect3049"
       width="1"
       height="3"
       x="-126"
       y="109"
       inkscape:tile-x0="1"
       inkscape:tile-y0="1"
       transform="scale(1,-1)" />
    <rect
       style="fill:#00ff00;fill-opacity:1;fill-rule:nonzero;stroke:none;stroke-width:5;stroke-linecap:round;stroke-linejoin:round;stroke-miterlimit:4;stroke-dasharray:none;stroke-dashoffset:0;stroke-opacity:1"
       id="rect3051"
       width="1"
       height="3"
       x="-121"
       y="109"
       inkscape:tile-x0="1"
       inkscape:tile-y0="1"
       transform="scale(1,-1)" />
    <rect
       style="fill:#00ff00;fill-opacity:1;fill-rule:nonzero;stroke:none;stroke-width:5;stroke-linecap:round;stroke-linejoin:round;stroke-miterlimit:4;stroke-dasharray:none;stroke-dashoffset:0;stroke-opacity:1"
       id="rect3053"
       width="1"
       height="3"
       x="-116"
       y="109"
       inkscape:tile-x0="1"
       inkscape:tile-y0="1"
       transform="scale(1,-1)" />
    <rect
       style="fill:#00ff00;fill-opacity:1;fill-rule:nonzero;stroke:none;stroke-width:5;stroke-linecap:round;stroke-linejoin:round;stroke-miterlimit:4;stroke-dasharray:none;stroke-dashoffset:0;stroke-opacity:1"
       id="rect3055"
       width="1"
       height="3"
       x="-106"
       y="109"
       inkscape:tile-x0="1"
       inkscape:tile-y0="1"
       transform="scale(1,-1)" />
    <rect
       style="fill:#00ff00;fill-opacity:1;fill-rule:nonzero;stroke:none;stroke-width:5;stroke-linecap:round;stroke-linejoin:round;stroke-miterlimit:4;stroke-dasharray:none;stroke-dashoffset:0;stroke-opacity:1"
       id="rect3057"
       width="1"
       height="3"
       x="-101"
       y="109"
       inkscape:tile-x0="1"
       inkscape:tile-y0="1"
       transform="scale(1,-1)" />
    <rect
       style="fill:#00ff00;fill-opacity:1;fill-rule:nonzero;stroke:none;stroke-width:5;stroke-linecap:round;stroke-linejoin:round;stroke-miterlimit:4;stroke-dasharray:none;stroke-dashoffset:0;stroke-opacity:1"
       id="rect3059"
       width="1"
       height="3"
       x="-96"
       y="109"
       inkscape:tile-x0="1"
       inkscape:tile-y0="1"
       transform="scale(1,-1)" />
    <rect
       style="opacity:1;fill:#00ff00;fill-opacity:1;fill-rule:nonzero;stroke:none;stroke-width:5;stroke-linecap:round;stroke-linejoin:round;stroke-miterlimit:4;stroke-dasharray:none;stroke-dashoffset:0;stroke-opacity:1"
       id="rect3831"
       width="40"
       height="1"
       x="91"
       y="130"
       transform="scale(-1,-1)" />
    <rect
       style="opacity:1;fill:#00ff00;fill-opacity:1;fill-rule:nonzero;stroke:none;stroke-width:5;stroke-linecap:round;stroke-linejoin:round;stroke-miterlimit:4;stroke-dasharray:none;stroke-dashoffset:0;stroke-opacity:1"
       id="rect3833"
       width="40"
       height="1"
       x="91"
       y="90"
       transform="scale(-1,-1)" />
    <rect
       style="opacity:1;fill:#00ff00;fill-opacity:1;fill-rule:nonzero;stroke:none;stroke-width:5;stroke-linecap:round;stroke-linejoin:round;stroke-miterlimit:4;stroke-dasharray:none;stroke-dashoffset:0;stroke-opacity:1"
       id="rect3835"
       width="1"
       height="41"
       x="90"
       y="90"
       transform="scale(-1,-1)" />
    <rect
       style="opacity:1;fill:#00ff00;fill-opacity:1;fill-rule:nonzero;stroke:none;stroke-width:5;stroke-linecap:round;stroke-linejoin:round;stroke-miterlimit:4;stroke-dasharray:none;stroke-dashoffset:0;stroke-opacity:1"
       id="rect3837"
       width="1"
       height="41"
       x="130"
       y="90"
       transform="scale(-1,-1)" />
    <path
       style="fill:#00ff00;fill-opacity:1;fill-rule:evenodd;stroke:none;stroke-width:1;stroke-linecap:butt;stroke-linejoin:miter;stroke-miterlimit:4;stroke-dasharray:none;stroke-opacity:1"
       d="M -150.25,-121 C -150.71035,-121 -151.10144,-120.77427 -151.46875,-120.46875 C -151.83606,-120.16323 -152.18534,-119.75781 -152.53125,-119.28125 C -153.22307,-118.32814 -153.91089,-117.09551 -154.5,-115.84375 C -155.67546,-113.3461 -156.5,-110.90625 -156.5,-110.90625 L -155.5625,-110.59375 C -155.5625,-110.59375 -154.74059,-112.96944 -153.59375,-115.40625 C -153.02173,-116.6217 -152.34849,-117.81992 -151.71875,-118.6875 C -151.40388,-119.12129 -151.1119,-119.46446 -150.84375,-119.6875 C -150.5756,-119.91054 -150.35619,-120 -150.25,-120 C -149.78418,-120 -149.41637,-119.80659 -149,-119.375 C -148.58363,-118.94341 -148.1726,-118.27242 -147.75,-117.40625 C -146.90725,-115.67897 -146.0607,-113.19238 -144.96875,-110.5 C -143.80865,-107.63962 -142.95094,-105.16912 -142.03125,-103.28125 C -141.57013,-102.33472 -141.0888,-101.55349 -140.5,-100.96875 C -139.9112,-100.38401 -139.19387,-100 -138.375,-100 C -137.56184,-100 -136.84653,-100.37404 -136.25,-100.96875 C -135.65347,-101.56346 -135.13263,-102.38254 -134.65625,-103.34375 C -133.70553,-105.26206 -132.85185,-107.76145 -131.78125,-110.5 C -130.70043,-113.26472 -129.72912,-115.71877 -128.8125,-117.4375 C -128.35419,-118.29686 -127.90645,-118.97278 -127.5,-119.40625 C -127.09355,-119.83972 -126.76637,-120 -126.5,-120 C -126.22665,-120 -125.89663,-119.82876 -125.5,-119.40625 C -125.10337,-118.98374 -124.67104,-118.32062 -124.21875,-117.46875 C -123.31416,-115.765 -122.33934,-113.33129 -121.1875,-110.5 C -120.05449,-107.71497 -119.20945,-105.18883 -118.28125,-103.28125 C -117.81597,-102.32502 -117.31303,-101.52002 -116.71875,-100.9375 C -116.12447,-100.35498 -115.40943,-100 -114.59375,-100 C -113.57206,-100 -112.79369,-100.81639 -112.0625,-101.84375 C -111.33131,-102.87111 -110.65442,-104.18883 -110.0625,-105.46875 C -108.87579,-108.03471 -108.03125,-110.59375 -108.03125,-110.59375 L -108.96875,-110.90625 C -108.96875,-110.90625 -109.81204,-108.40734 -110.96875,-105.90625 C -111.54853,-104.65259 -112.21096,-103.37051 -112.875,-102.4375 C -113.53904,-101.50449 -114.19475,-101 -114.59375,-101 C -115.12672,-101 -115.56865,-101.20281 -116.03125,-101.65625 C -116.49385,-102.10969 -116.93712,-102.81883 -117.375,-103.71875 C -118.25314,-105.52345 -119.1022,-108.05361 -120.25,-110.875 C -121.40079,-113.7037 -122.39469,-116.14999 -123.34375,-117.9375 C -123.81828,-118.83125 -124.28093,-119.56079 -124.78125,-120.09375 C -125.28157,-120.62671 -125.85134,-121 -126.5,-121 C -127.15387,-121 -127.71076,-120.63552 -128.21875,-120.09375 C -128.72674,-119.55198 -129.20641,-118.80833 -129.6875,-117.90625 C -130.64968,-116.1021 -131.63635,-113.64376 -132.71875,-110.875 C -133.79873,-108.11247 -134.6607,-105.60084 -135.5625,-103.78125 C -136.01239,-102.8735 -136.46676,-102.15681 -136.9375,-101.6875 C -137.40824,-101.21819 -137.86179,-101 -138.375,-101 C -138.9077,-101 -139.354,-101.20091 -139.8125,-101.65625 C -140.271,-102.11159 -140.72113,-102.82559 -141.15625,-103.71875 C -142.029,-105.51026 -142.85886,-107.98432 -144.03125,-110.875 C -145.10994,-113.53468 -145.95192,-116.01587 -146.84375,-117.84375 C -147.28844,-118.75517 -147.73954,-119.50099 -148.28125,-120.0625 C -148.82296,-120.62401 -149.48659,-121 -150.25,-121 z"
       id="path3309" />
    <path
       style="fill:#00ff00;fill-opacity:1;fill-rule:evenodd;stroke:none;stroke-width:1;stroke-linecap:butt;stroke-linejoin:miter;stroke-miterlimit:4;stroke-dasharray:none;stroke-opacity:1"
       d="M -102.71875,-121 C -103.1791,-121 -103.57019,-120.77427 -103.9375,-120.46875 C -104.30481,-120.16323 -104.65409,-119.75781 -105,-119.28125 C -105.69182,-118.32814 -106.37964,-117.09551 -106.96875,-115.84375 C -108.14421,-113.3461 -108.96875,-110.90625 -108.96875,-110.90625 L -108.03125,-110.59375 C -108.03125,-110.59375 -107.20934,-112.96944 -106.0625,-115.40625 C -105.49047,-116.6217 -104.84849,-117.81991 -104.21875,-118.6875 C -103.90388,-119.12129 -103.58065,-119.46446 -103.3125,-119.6875 C -103.04435,-119.91054 -102.82493,-120 -102.71875,-120 C -102.25291,-120 -101.88512,-119.80659 -101.46875,-119.375 C -101.05238,-118.94341 -100.64136,-118.27242 -100.21875,-117.40625 C -99.375995,-115.67897 -98.529468,-113.19239 -97.4375,-110.5 C -96.277406,-107.63962 -95.419695,-105.16912 -94.5,-103.28125 C -94.038883,-102.33471 -93.557549,-101.55349 -92.96875,-100.96875 C -92.379951,-100.38401 -91.662619,-100 -90.84375,-100 C -90.030586,-100 -89.315277,-100.37404 -88.71875,-100.96875 C -88.122223,-101.56346 -87.601383,-102.38254 -87.125,-103.34375 C -86.174273,-105.26206 -85.320607,-107.76146 -84.25,-110.5 C -83.169181,-113.26472 -82.197869,-115.71877 -81.28125,-117.4375 C -80.822941,-118.29686 -80.375194,-118.97278 -79.96875,-119.40625 C -79.562306,-119.83972 -79.235122,-120 -78.96875,-120 C -78.695398,-120 -78.365384,-119.82876 -77.96875,-119.40625 C -77.572116,-118.98374 -77.139794,-118.32062 -76.6875,-117.46875 C -75.782912,-115.765 -74.808094,-113.33129 -73.65625,-110.5 C -72.523245,-107.71497 -71.678204,-105.18884 -70.75,-103.28125 C -70.284713,-102.32502 -69.813034,-101.52002 -69.21875,-100.9375 C -68.624466,-100.35498 -67.878189,-100 -67.0625,-100 C -66.040814,-100 -65.262444,-100.81639 -64.53125,-101.84375 C -63.800056,-102.87111 -63.123172,-104.18883 -62.53125,-105.46875 C -61.344547,-108.03471 -60.5,-110.59375 -60.5,-110.59375 L -61.4375,-110.90625 C -61.4375,-110.90625 -62.280799,-108.40734 -63.4375,-105.90625 C -64.017279,-104.65259 -64.679709,-103.37051 -65.34375,-102.4375 C -66.007791,-101.50449 -66.663508,-101 -67.0625,-101 C -67.595474,-101 -68.037402,-101.20281 -68.5,-101.65625 C -68.962598,-102.10969 -69.405862,-102.81883 -69.84375,-103.71875 C -70.721888,-105.52344 -71.570954,-108.05361 -72.71875,-110.875 C -73.869539,-113.7037 -74.863441,-116.14999 -75.8125,-117.9375 C -76.287029,-118.83125 -76.749676,-119.56079 -77.25,-120.09375 C -77.750324,-120.62671 -78.320087,-121 -78.96875,-121 C -79.622614,-121 -80.210759,-120.63552 -80.71875,-120.09375 C -81.226741,-119.55198 -81.675162,-118.80833 -82.15625,-117.90625 C -83.118425,-116.1021 -84.105103,-113.64376 -85.1875,-110.875 C -86.267487,-108.11246 -87.129451,-105.60084 -88.03125,-103.78125 C -88.481139,-102.8735 -88.935509,-102.15681 -89.40625,-101.6875 C -89.876991,-101.21819 -90.330538,-101 -90.84375,-101 C -91.376457,-101 -91.822744,-101.20091 -92.28125,-101.65625 C -92.739756,-102.11159 -93.189886,-102.82559 -93.625,-103.71875 C -94.497753,-105.51026 -95.327614,-107.98432 -96.5,-110.875 C -97.5787,-113.53467 -98.420659,-116.01587 -99.3125,-117.84375 C -99.757185,-118.75517 -100.20829,-119.50099 -100.75,-120.0625 C -101.29171,-120.62401 -101.95533,-121 -102.71875,-121 z"
       id="path3601" />
  </g>
</svg>
